# xmcd
#
# Track frame offsets: 
#        150
#        15772
#        31279
#        51618
#        69787
#        88139
#        108044
#        122027
#        143516
#        162723
#
# Disc length: 2402 seconds
#
# Revision: 1
# Processed by: cddbd v1.5.2PL0 Copyright (c) Steve Scherf et al.
# Submitted via: ExactAudioCopy v1.0b1
#
DISCID=7a09600a
DTITLE=Caroline Herring - Lantana
DYEAR=2008
DGENRE=Country
TTITLE0=Stone Cold World
TTITLE1=Lay My Burden Down
TTITLE2=Paper Gown
TTITLE3=Heartbreak Tonight
TTITLE4=Midnight On The Water
TTITLE5=States Of Grace
TTITLE6=All The Pretty Little Horses
TTITLE7=Fair And Tender Ladies
TTITLE8=Lover Girl
TTITLE9=Song For Fay
EXTD=
EXTT0=
EXTT1=
EXTT2=
EXTT3=
EXTT4=
EXTT5=
EXTT6=
EXTT7=
EXTT8=
EXTT9=
PLAYORDER=
